<?xml version="1.0" encoding="utf-8"?>
<!-- Generator: Adobe Illustrator 23.0.1, SVG Export Plug-In . SVG Version: 6.00 Build 0)  -->
<svg version="1.1" id="Capa_1" xmlns="http://www.w3.org/2000/svg" xmlns:xlink="http://www.w3.org/1999/xlink" x="0px" y="0px"
	 viewBox="0 0 841.9 202.4" style="enable-background:new 0 0 841.9 202.4;" xml:space="preserve">
<style type="text/css">
	.st0{fill:#FEC812;}
	.st1{fill:#E7373C;}
	.st2{fill:#009C8C;}
	.st3{fill:#EA5A2A;}
	.st4{fill:#008DC2;}
</style>
<path class="st0" d="M157.3,106.7c2.5,3.6,4.8,7.3,7.4,10.8c6.7,9.1,13.7,18.1,20.4,27.3c3,4.1,5.4,8.7,6.5,13.7
	c0.8,3.6,1,7.4,0.9,11.1c-0.1,3.8-2.3,5.5-6.3,5.9c-0.9,0.1-1.8,0.1-2.7,0.1c-15.1,0-30.2-0.1-45.3,0.1c-5.7,0.1-9-2.3-11.6-7.2
	c-4.4-8.3-9.3-16.4-14-24.6c-1-1.7-2.4-3.1-3.6-4.6c-1-1.2-2-1.2-2.8,0.1c-2.9,4.1-6.1,8.2-8.7,12.5c-3.8,6.3-7.1,12.9-10.7,19.3
	c-1.7,3.1-4.5,4.4-7.8,4.4c-16.4,0.1-32.7,0.1-49.1,0c-5.2,0-7.4-2.3-7.6-7.6c-0.3-9.3,3.3-17.2,8.5-24.5c6.3-8.8,13-17.3,19.5-26
	c2.6-3.5,4.9-7.2,7.5-11.1c-4-0.7-7.5-1.3-11-2.1c-6.4-1.4-12.9-3-18.6-6.4c-2-1.2-3.9-2.9-5.1-4.9c-2-3.3-0.4-6.6,1.4-9.5
	c3.1-5,7.7-8.6,12.7-11.4c10-5.5,20.1-10.7,30.2-16c3.2-1.7,6.6-3.2,9.9-4.7c1.6-0.7,1.9-2,2.1-3.6c0.9-8.8,3.6-16.9,10.3-23
	c13-11.9,33.2-8.2,41.6,7.6c2.6,5,4.2,10.3,4.5,15.9c0.1,1.7,0.9,2.6,2.3,3.3c10.3,5.1,20.6,10.1,30.8,15.3
	c6.6,3.4,13,7.2,18.4,12.5c2.3,2.3,4.1,4.9,5.1,8.2c1.1,3.7,0,6.4-2.8,8.7c-3.3,2.7-7.1,4.4-11.2,5.4
	C171.4,103.3,164.6,104.9,157.3,106.7z"/>
<g>
	<path class="st1" d="M299,138.7h-19.3l-39-67.9h-0.3v67.9h-17.3V45.3h19.7l38.6,67.9h0.3V45.3H299V138.7z"/>
	<path class="st1" d="M409.6,92.2c0,13.4-4.8,24.8-14.3,34.2c-9.6,9.4-21.1,14.1-34.5,14.1c-13.5,0-25-4.7-34.5-14.1
		c-9.6-9.4-14.3-20.8-14.3-34.2c0-13.5,4.8-25.1,14.3-34.6s21-14.3,34.6-14.3c13.5,0,25.1,4.8,34.6,14.3
		C404.8,67.1,409.6,78.7,409.6,92.2z M392.3,92.1c0-8.9-3.1-16.6-9.2-23s-13.6-9.6-22.4-9.6s-16.3,3.2-22.4,9.6s-9.2,14.1-9.2,23
		c0,8.8,3.1,16.3,9.2,22.7c6.1,6.4,13.6,9.6,22.3,9.6c8.8,0,16.2-3.2,22.3-9.6C389.2,108.4,392.3,100.8,392.3,92.1z"/>
	<path class="st1" d="M496.7,92.2c0,8.2-2,16-6,23.5s-9.4,13.1-16.3,16.9c-7.3,4-17.7,6.1-31.1,6.1h-21.6V45.3h21.2
		c17.3,0,30.1,3.6,38.4,10.9c4.9,4.3,8.7,9.7,11.4,16.2C495.3,78.8,496.7,85.4,496.7,92.2z M479.4,92.2c0-4.3-0.9-8.5-2.6-12.6
		s-4.2-7.6-7.4-10.4c-2.7-2.4-5.9-4.2-9.7-5.4c-3.7-1.2-7-1.9-9.7-2.1c-2.7-0.2-6.4-0.3-11.1-0.3v61.1h3.7c9.8,0,17.3-1.5,22.7-4.5
		c4.4-2.4,7.8-6,10.3-10.7C478.1,102.5,479.4,97.5,479.4,92.2z"/>
	<path class="st1" d="M560,138.7h-50.2V45.3H560v16.2h-33v22.9h31.6v16.2H527v22.1h33V138.7z"/>
	<path class="st2" d="M636.5,74.2c0,9.3-2.9,16.4-8.8,21.5c-3.7,3.2-7.5,5.2-11.3,6.1s-8.8,1.3-15,1.3h-7.3v35.6h-17.3V45.3h24.6
		c6.1,0,11.1,0.4,15,1.3c3.8,0.9,7.6,2.9,11.3,6.1C633.6,57.7,636.5,64.9,636.5,74.2z M617.5,80.9c1.1-1.8,1.7-4.1,1.7-6.8
		c0-2.7-0.5-4.9-1.6-6.8c-1.1-1.8-2.6-3.1-4.6-3.9c-2-0.8-4-1.3-5.9-1.6s-4.2-0.4-6.8-0.4h-6.2v25.5h5.6c2.7,0,5-0.1,6.9-0.4
		s4-0.8,6.1-1.6C614.8,84,616.4,82.7,617.5,80.9z"/>
	<path class="st3" d="M740.3,92.2c0,13.4-4.8,24.8-14.3,34.2c-9.6,9.4-21.1,14.1-34.5,14.1c-13.5,0-25-4.7-34.5-14.1
		c-9.6-9.4-14.3-20.8-14.3-34.2c0-13.5,4.8-25.1,14.3-34.6s21-14.3,34.6-14.3c13.5,0,25.1,4.8,34.6,14.3
		C735.6,67.1,740.3,78.7,740.3,92.2z M723,92.1c0-8.9-3.1-16.6-9.2-23c-6.1-6.4-13.6-9.6-22.4-9.6c-8.8,0-16.3,3.2-22.4,9.6
		c-6.1,6.4-9.2,14.1-9.2,23c0,8.8,3.1,16.3,9.2,22.7c6.1,6.4,13.6,9.6,22.3,9.6c8.8,0,16.2-3.2,22.3-9.6
		C720,108.4,723,100.8,723,92.1z"/>
	<path class="st4" d="M813.3,74.2c0,9.3-2.9,16.4-8.8,21.5c-3.7,3.2-7.5,5.2-11.3,6.1s-8.8,1.3-15,1.3h-7.3v35.6h-17.3V45.3h24.6
		c6.1,0,11.1,0.4,15,1.3c3.8,0.9,7.6,2.9,11.3,6.1C810.3,57.7,813.3,64.9,813.3,74.2z M794.3,80.9c1.1-1.8,1.7-4.1,1.7-6.8
		c0-2.7-0.5-4.9-1.6-6.8c-1.1-1.8-2.6-3.1-4.6-3.9c-2-0.8-4-1.3-5.9-1.6s-4.2-0.4-6.8-0.4h-6.2v25.5h5.6c2.7,0,5-0.1,6.9-0.4
		s4-0.8,6.1-1.6C791.5,84,793.2,82.7,794.3,80.9z"/>
</g>
<g>
	<path d="M430.4,177.9c0,0.7,0,1.2-0.1,1.5c0,0.3-0.2,0.7-0.3,1.1c-0.2,0.4-0.5,0.8-0.9,1.2c-0.8,0.7-1.6,1.1-2.5,1.1v-2.4
		c0.3,0,0.5-0.1,0.8-0.2c0.2-0.1,0.4-0.2,0.5-0.4c0.1-0.1,0.2-0.3,0.2-0.6c0.1-0.3,0.1-0.5,0.1-0.6c0-0.2,0-0.4,0-0.7
		c0-0.1,0-0.2,0-0.2v-11.9h2.3v12.1H430.4z M430.4,164.3h-2.3v-2.7h2.3V164.3z"/>
	<path d="M444.1,177.9H442v-1.3l0,0c-0.3,0.6-0.8,1-1.5,1.2c-0.7,0.3-1.4,0.4-2.1,0.4c-1.4,0-2.5-0.4-3.5-1.2
		c-1.1-0.9-1.6-2.5-1.6-4.7v-6.6h2.3v6.6c0,1.2,0.2,2.1,0.7,2.8s1.2,1,2.4,1c1.1,0,1.9-0.4,2.4-1.1c0.5-0.7,0.8-1.7,0.8-2.8v-6.6
		h2.3L444.1,177.9L444.1,177.9z"/>
	<path d="M459,171.7c0,0.4,0,0.8-0.1,1.1h-10.1c0.2,1,0.7,1.8,1.4,2.4c0.7,0.6,1.6,0.9,2.6,0.9c0.7,0,1.4-0.2,2-0.6
		c0.6-0.4,1.1-0.9,1.4-1.5h2.3c-0.5,1.3-1.2,2.3-2.3,3c-1.1,0.8-2.3,1.1-3.6,1.1c-1.7,0-3.2-0.6-4.4-1.9c-1.2-1.3-1.8-2.8-1.8-4.5
		c0-1.8,0.6-3.3,1.8-4.5c1.2-1.3,2.7-1.9,4.5-1.9c1.7,0,3.2,0.6,4.4,1.9S459,169.9,459,171.7z M456.7,171c-0.1-1-0.5-1.8-1.3-2.5
		s-1.7-1-2.7-1s-1.9,0.3-2.7,1c-0.8,0.7-1.2,1.5-1.3,2.5H456.7z"/>
	<path d="M473.7,176.3c0,2-0.6,3.6-1.8,4.8c-1.2,1.1-2.8,1.7-4.8,1.7c-1.4,0-2.6-0.3-3.6-1c-1.1-0.7-1.9-1.6-2.4-2.8h2.6
		c0.8,1.2,2,1.8,3.5,1.8c1.4,0,2.5-0.4,3.2-1.1c0.7-0.7,1.1-1.8,1.1-3.2l0,0c-0.9,1.3-2.3,1.9-4.2,1.9c-1.8,0-3.3-0.6-4.6-1.9
		c-1.3-1.3-1.9-2.8-1.9-4.6c0-0.9,0.2-1.9,0.7-2.7c0.6-1.2,1.4-2.1,2.4-2.7c1-0.6,2.2-1,3.5-1c0.8,0,1.6,0.2,2.3,0.5
		c0.8,0.3,1.4,0.7,1.9,1.3v-1.4h2.3v10.4H473.7z M471.4,171.8c0-2-0.9-3.3-2.6-4c-0.6-0.2-1.1-0.3-1.6-0.3c-1.2,0-2.2,0.4-3,1.3
		c-0.8,0.9-1.2,1.9-1.2,3.1c0,1.2,0.4,2.2,1.2,3c0.8,0.9,1.8,1.3,3,1.3c0.9,0,1.7-0.2,2.3-0.7c0.7-0.5,1.2-1.1,1.5-1.9
		C471.3,173,471.4,172.4,471.4,171.8z"/>
	<path d="M488.9,171.8c0,1.8-0.6,3.3-1.9,4.6s-2.8,1.9-4.7,1.9c-1.8,0-3.4-0.6-4.7-1.9c-1.3-1.3-1.9-2.8-1.9-4.6s0.7-3.3,2-4.5
		s2.9-1.8,4.6-1.8c1.8,0,3.4,0.6,4.7,1.9S488.9,170,488.9,171.8z M485.3,174.9c0.8-0.9,1.3-1.9,1.3-3.1s-0.4-2.2-1.3-3
		c-0.8-0.8-1.9-1.3-3-1.3c-1.2,0-2.2,0.4-3,1.3c-0.8,0.8-1.3,1.9-1.3,3.1c0,1.2,0.4,2.2,1.3,3.1c0.8,0.9,1.9,1.3,3,1.3
		C483.5,176.1,484.5,175.7,485.3,174.9z"/>
	<path d="M498.6,174.3c0,1.2-0.4,2.1-1.2,2.8c-0.8,0.7-1.8,1.1-2.9,1.1c-0.5,0-1-0.1-1.6-0.3c-0.9-0.3-1.6-0.8-2.1-1.5
		s-0.7-1.5-0.7-2.5h2.3c0,0.7,0.2,1.2,0.6,1.6s0.8,0.6,1.5,0.6c0.5,0,0.9-0.2,1.3-0.5c0.3-0.3,0.5-0.7,0.5-1.2s-0.2-0.8-0.6-1.1
		s-0.8-0.5-1.4-0.7c-0.5-0.2-1.1-0.4-1.6-0.6c-0.6-0.2-1-0.6-1.4-1.1s-0.6-1.2-0.6-2c0-1,0.4-1.9,1.1-2.5c0.8-0.7,1.7-1,2.7-1
		c1.1,0,1.9,0.3,2.7,1c0.7,0.7,1.1,1.5,1.1,2.6H496c-0.1-0.5-0.2-0.8-0.5-1.1s-0.6-0.4-1.1-0.4c-0.4,0-0.7,0.1-1,0.4
		c-0.3,0.2-0.4,0.6-0.4,1c0,0.1,0,0.2,0,0.3s0,0.2,0.1,0.3c0,0.1,0.1,0.1,0.1,0.2c0.1,0.1,0.1,0.1,0.2,0.2c0,0,0.1,0.1,0.2,0.2
		c0.1,0.1,0.2,0.1,0.2,0.1s0.1,0.1,0.3,0.1c0.1,0.1,0.2,0.1,0.3,0.1c0,0,0.1,0,0.3,0.1c0.1,0.1,0.2,0.1,0.2,0.1
		c1.2,0.4,2.1,0.8,2.7,1.4C498.3,172.4,498.6,173.2,498.6,174.3z"/>
	<path d="M519.3,177.9h-2.1v-1.7l0,0c-1,1.4-2.4,2.1-4.3,2.1c-1.8,0-3.3-0.6-4.5-1.8s-1.8-2.7-1.8-4.6c0-1.8,0.6-3.4,1.8-4.6
		c1.2-1.2,2.7-1.9,4.6-1.9c0.8,0,1.6,0.2,2.3,0.5s1.4,0.8,1.8,1.4l0,0v-5.6h2.3L519.3,177.9L519.3,177.9z M517.2,171.8
		c0-1.2-0.4-2.3-1.2-3.1s-1.8-1.3-3-1.3s-2.2,0.4-3,1.3c-0.8,0.9-1.2,1.9-1.2,3.1c0,1.2,0.4,2.2,1.2,3c0.8,0.9,1.8,1.3,3,1.3
		s2.2-0.4,3-1.3C516.8,174.1,517.2,173,517.2,171.8z"/>
	<path d="M534.2,171.7c0,0.4,0,0.8-0.1,1.1H524c0.2,1,0.7,1.8,1.4,2.4c0.7,0.6,1.6,0.9,2.6,0.9c0.7,0,1.4-0.2,2-0.6
		c0.6-0.4,1.1-0.9,1.4-1.5h2.3c-0.5,1.3-1.2,2.3-2.3,3c-1.1,0.8-2.3,1.1-3.6,1.1c-1.7,0-3.2-0.6-4.4-1.9c-1.2-1.3-1.8-2.8-1.8-4.5
		c0-1.8,0.6-3.3,1.8-4.5c1.2-1.3,2.7-1.9,4.5-1.9c1.7,0,3.2,0.6,4.4,1.9C533.5,168.5,534.2,169.9,534.2,171.7z M531.9,171
		c-0.1-1-0.5-1.8-1.3-2.5s-1.7-1-2.7-1s-1.9,0.3-2.7,1s-1.2,1.5-1.3,2.5H531.9z"/>
	<path d="M561.5,177.9h-2.3v-6.8c0-2.4-1-3.7-2.9-3.7c-1.1,0-1.9,0.3-2.3,1c-0.4,0.6-0.6,1.5-0.6,2.7v6.8h-2.3v-6.8
		c0-1.1-0.2-2-0.5-2.5c-0.5-0.8-1.3-1.1-2.3-1.1c-2,0-3,1.2-3,3.6v6.8H543v-12.2h2.1v1.3l0,0c0.5-0.6,1-1,1.5-1.3s1.2-0.4,2-0.4
		s1.5,0.2,2.3,0.5s1.2,0.9,1.5,1.5c0.9-1.4,2.2-2.1,4-2.1c1.6,0,2.8,0.5,3.7,1.4s1.3,2.2,1.3,3.8v7.5H561.5z"/>
	<path d="M576.3,171.7c0,0.4,0,0.8-0.1,1.1h-10.1c0.2,1,0.7,1.8,1.4,2.4c0.7,0.6,1.6,0.9,2.6,0.9c0.7,0,1.4-0.2,2-0.6
		c0.6-0.4,1.1-0.9,1.4-1.5h2.3c-0.5,1.3-1.2,2.3-2.3,3c-1.1,0.8-2.3,1.1-3.6,1.1c-1.7,0-3.2-0.6-4.4-1.9c-1.2-1.3-1.8-2.8-1.8-4.5
		c0-1.8,0.6-3.3,1.8-4.5c1.2-1.3,2.7-1.9,4.5-1.9c1.7,0,3.2,0.6,4.4,1.9C575.7,168.5,576.3,169.9,576.3,171.7z M574,171
		c-0.1-1-0.5-1.8-1.3-2.5s-1.7-1-2.7-1s-1.9,0.3-2.7,1s-1.2,1.5-1.3,2.5H574z"/>
	<path d="M586,174.3c0,1.2-0.4,2.1-1.2,2.8s-1.8,1.1-2.9,1.1c-0.5,0-1-0.1-1.6-0.3c-0.9-0.3-1.6-0.8-2.1-1.5s-0.7-1.5-0.7-2.5h2.3
		c0,0.7,0.2,1.2,0.6,1.6c0.3,0.4,0.8,0.6,1.5,0.6c0.5,0,0.9-0.2,1.3-0.5c0.3-0.3,0.5-0.7,0.5-1.2s-0.2-0.8-0.6-1.1
		c-0.4-0.3-0.8-0.5-1.4-0.7c-0.5-0.2-1.1-0.4-1.6-0.6c-0.6-0.2-1-0.6-1.4-1.1s-0.6-1.2-0.6-2c0-1,0.4-1.9,1.1-2.5s1.7-1,2.7-1
		c1.1,0,1.9,0.3,2.7,1c0.7,0.7,1.1,1.5,1.1,2.6h-2.3c-0.1-0.5-0.2-0.8-0.5-1.1s-0.6-0.4-1.1-0.4c-0.4,0-0.7,0.1-1,0.4
		c-0.3,0.2-0.4,0.6-0.4,1c0,0.1,0,0.2,0,0.3s0,0.2,0.1,0.3c0,0.1,0.1,0.1,0.1,0.2c0.1,0.1,0.1,0.1,0.2,0.2c0,0,0.1,0.1,0.2,0.2
		c0.1,0.1,0.2,0.1,0.2,0.1s0.1,0.1,0.3,0.1s0.2,0.1,0.3,0.1c0,0,0.1,0,0.3,0.1c0.1,0.1,0.2,0.1,0.2,0.1c1.2,0.4,2.1,0.8,2.7,1.4
		C585.7,172.4,586,173.2,586,174.3z"/>
	<path d="M600.3,177.9H598V176l0,0c-0.4,0.7-1,1.3-1.7,1.6c-0.7,0.4-1.5,0.6-2.4,0.6c-1.8,0-3.4-0.6-4.6-1.8
		c-1.2-1.2-1.9-2.7-1.9-4.6c0-1.9,0.6-3.4,1.9-4.6s2.8-1.9,4.6-1.9c0.9,0,1.6,0.2,2.4,0.5c0.7,0.3,1.3,0.9,1.8,1.5l0,0v-1.7h2.3
		L600.3,177.9L600.3,177.9z M598,171.8c0-1.2-0.4-2.3-1.2-3.1s-1.8-1.3-3-1.3s-2.2,0.4-3,1.3c-0.8,0.9-1.2,1.9-1.2,3.1
		c0,1.2,0.4,2.2,1.2,3c0.8,0.9,1.8,1.3,3,1.3s2.2-0.4,3-1.3C597.6,174.1,598,173,598,171.8z"/>
	<path d="M622,177.9h-2.1v-1.7l0,0c-1,1.4-2.4,2.1-4.3,2.1c-1.8,0-3.3-0.6-4.5-1.8s-1.8-2.7-1.8-4.6c0-1.8,0.6-3.4,1.8-4.6
		c1.2-1.2,2.7-1.9,4.6-1.9c0.8,0,1.6,0.2,2.3,0.5s1.3,0.8,1.8,1.4l0,0v-5.6h2.3L622,177.9L622,177.9z M619.9,171.8
		c0-1.2-0.4-2.3-1.2-3.1s-1.8-1.3-3-1.3s-2.2,0.4-3,1.3c-0.8,0.9-1.2,1.9-1.2,3.1c0,1.2,0.4,2.2,1.2,3c0.8,0.9,1.8,1.3,3,1.3
		s2.2-0.4,3-1.3C619.4,174.1,619.9,173,619.9,171.8z"/>
	<path d="M636.8,171.7c0,0.4,0,0.8-0.1,1.1h-10.1c0.2,1,0.7,1.8,1.4,2.4c0.7,0.6,1.6,0.9,2.6,0.9c0.7,0,1.4-0.2,2-0.6
		c0.6-0.4,1.1-0.9,1.4-1.5h2.3c-0.5,1.3-1.2,2.3-2.3,3c-1.1,0.8-2.3,1.1-3.6,1.1c-1.7,0-3.2-0.6-4.4-1.9c-1.2-1.3-1.8-2.8-1.8-4.5
		c0-1.8,0.6-3.3,1.8-4.5c1.2-1.3,2.7-1.9,4.5-1.9c1.7,0,3.2,0.6,4.4,1.9C636.2,168.5,636.8,169.9,636.8,171.7z M634.5,171
		c-0.1-1-0.5-1.8-1.3-2.5s-1.7-1-2.7-1s-1.9,0.3-2.7,1s-1.2,1.5-1.3,2.5H634.5z"/>
	<path d="M653,174.3c0,1.2-0.4,2.1-1.2,2.8s-1.8,1.1-2.9,1.1c-0.5,0-1-0.1-1.6-0.3c-0.9-0.3-1.6-0.8-2.1-1.5s-0.7-1.5-0.7-2.5h2.3
		c0,0.7,0.2,1.2,0.6,1.6c0.3,0.4,0.8,0.6,1.5,0.6c0.5,0,0.9-0.2,1.3-0.5c0.3-0.3,0.5-0.7,0.5-1.2s-0.2-0.8-0.6-1.1
		c-0.4-0.3-0.8-0.5-1.4-0.7c-0.5-0.2-1.1-0.4-1.6-0.6c-0.6-0.2-1-0.6-1.4-1.1s-0.6-1.2-0.6-2c0-1,0.4-1.9,1.1-2.5s1.7-1,2.7-1
		c1.1,0,1.9,0.3,2.7,1c0.7,0.7,1.1,1.5,1.1,2.6h-2.3c-0.1-0.5-0.2-0.8-0.5-1.1s-0.6-0.4-1.1-0.4c-0.4,0-0.7,0.1-1,0.4
		c-0.3,0.2-0.4,0.6-0.4,1c0,0.1,0,0.2,0,0.3s0,0.2,0.1,0.3c0,0.1,0.1,0.1,0.1,0.2c0.1,0.1,0.1,0.1,0.2,0.2c0,0,0.1,0.1,0.2,0.2
		c0.1,0.1,0.2,0.1,0.2,0.1s0.1,0.1,0.3,0.1s0.2,0.1,0.3,0.1c0,0,0.1,0,0.3,0.1c0.1,0.1,0.2,0.1,0.2,0.1c1.2,0.4,2.1,0.8,2.7,1.4
		C652.7,172.4,653,173.2,653,174.3z"/>
	<path d="M666.9,171.7c0,0.4,0,0.8-0.1,1.1h-10.1c0.2,1,0.7,1.8,1.4,2.4c0.7,0.6,1.6,0.9,2.6,0.9c0.7,0,1.4-0.2,2-0.6
		c0.6-0.4,1.1-0.9,1.4-1.5h2.3c-0.5,1.3-1.2,2.3-2.3,3c-1.1,0.8-2.3,1.1-3.6,1.1c-1.7,0-3.2-0.6-4.4-1.9c-1.2-1.3-1.8-2.8-1.8-4.5
		c0-1.8,0.6-3.3,1.8-4.5c1.2-1.3,2.7-1.9,4.5-1.9c1.7,0,3.2,0.6,4.4,1.9C666.3,168.5,666.9,169.9,666.9,171.7z M664.6,171
		c-0.1-1-0.5-1.8-1.3-2.5s-1.7-1-2.7-1s-1.9,0.3-2.7,1s-1.2,1.5-1.3,2.5H664.6z"/>
	<path d="M681.6,176.3c0,2-0.6,3.6-1.8,4.8c-1.2,1.1-2.8,1.7-4.8,1.7c-1.4,0-2.6-0.3-3.6-1c-1.1-0.7-1.9-1.6-2.4-2.8h2.6
		c0.8,1.2,2,1.8,3.5,1.8c1.4,0,2.5-0.4,3.2-1.1c0.7-0.7,1.1-1.8,1.1-3.2l0,0c-0.9,1.3-2.3,1.9-4.2,1.9c-1.8,0-3.3-0.6-4.6-1.9
		c-1.3-1.3-1.9-2.8-1.9-4.6c0-0.9,0.2-1.9,0.7-2.7c0.6-1.2,1.4-2.1,2.4-2.7c1-0.6,2.2-1,3.5-1c0.8,0,1.6,0.2,2.3,0.5
		s1.4,0.7,1.9,1.3v-1.4h2.3v10.4H681.6z M679.3,171.8c0-2-0.9-3.3-2.6-4c-0.6-0.2-1.1-0.3-1.6-0.3c-1.2,0-2.2,0.4-3,1.3
		c-0.8,0.9-1.2,1.9-1.2,3.1c0,1.2,0.4,2.2,1.2,3s1.8,1.3,3,1.3c0.9,0,1.7-0.2,2.3-0.7c0.7-0.5,1.2-1.1,1.5-1.9
		C679.2,173,679.3,172.4,679.3,171.8z"/>
	<path d="M695.4,177.9h-2.1v-1.3l0,0c-0.3,0.6-0.8,1-1.5,1.2c-0.7,0.3-1.4,0.4-2.1,0.4c-1.4,0-2.5-0.4-3.5-1.2
		c-1.1-0.9-1.6-2.5-1.6-4.7v-6.6h2.3v6.6c0,1.2,0.2,2.1,0.7,2.8s1.2,1,2.4,1c1.1,0,1.9-0.4,2.4-1.1c0.5-0.7,0.8-1.7,0.8-2.8v-6.6
		h2.3v12.3H695.4z"/>
	<path d="M709.2,177.9h-2.3v-6.6c0-2.5-1-3.8-3-3.8c-1.1,0-1.9,0.4-2.4,1.1c-0.5,0.7-0.8,1.6-0.8,2.7v6.7h-2.3v-12.2h2.1v1.3l0,0
		c0.8-1.1,2-1.6,3.6-1.6c2,0,3.4,0.7,4.3,2.2c0.5,0.8,0.8,1.8,0.8,3.1L709.2,177.9L709.2,177.9z"/>
	<path d="M724.3,177.9h-2.1v-1.7l0,0c-1,1.4-2.4,2.1-4.3,2.1c-1.8,0-3.3-0.6-4.5-1.8s-1.8-2.7-1.8-4.6c0-1.8,0.6-3.4,1.8-4.6
		c1.2-1.2,2.7-1.9,4.6-1.9c0.8,0,1.6,0.2,2.3,0.5s1.3,0.8,1.8,1.4l0,0v-5.6h2.3L724.3,177.9L724.3,177.9z M722.2,171.8
		c0-1.2-0.4-2.3-1.2-3.1s-1.8-1.3-3-1.3s-2.2,0.4-3,1.3c-0.8,0.9-1.2,1.9-1.2,3.1c0,1.2,0.4,2.2,1.2,3c0.8,0.9,1.8,1.3,3,1.3
		s2.2-0.4,3-1.3C721.8,174.1,722.2,173,722.2,171.8z"/>
	<path d="M739.6,177.9h-2.3V176l0,0c-0.4,0.7-1,1.3-1.7,1.6c-0.7,0.4-1.5,0.6-2.4,0.6c-1.8,0-3.4-0.6-4.6-1.8
		c-1.2-1.2-1.9-2.7-1.9-4.6c0-1.9,0.6-3.4,1.9-4.6c1.2-1.2,2.8-1.9,4.6-1.9c0.9,0,1.6,0.2,2.4,0.5c0.7,0.3,1.3,0.9,1.8,1.5l0,0v-1.7
		h2.3L739.6,177.9L739.6,177.9z M737.4,171.8c0-1.2-0.4-2.3-1.2-3.1s-1.8-1.3-3-1.3s-2.2,0.4-3,1.3c-0.8,0.9-1.2,1.9-1.2,3.1
		c0,1.2,0.4,2.2,1.2,3c0.8,0.9,1.8,1.3,3,1.3s2.2-0.4,3-1.3C737,174.1,737.4,173,737.4,171.8z"/>
	<path d="M767.6,177.9h-2.3v-6.8c0-2.4-1-3.7-2.9-3.7c-1.1,0-1.9,0.3-2.3,1c-0.4,0.6-0.6,1.5-0.6,2.7v6.8h-2.3v-6.8
		c0-1.1-0.2-2-0.5-2.5c-0.5-0.8-1.3-1.1-2.3-1.1c-2,0-3,1.2-3,3.6v6.8h-2.3v-12.2h2.1v1.3l0,0c0.5-0.6,1-1,1.5-1.3s1.2-0.4,2-0.4
		s1.5,0.2,2.3,0.5c0.7,0.4,1.2,0.9,1.5,1.5c0.9-1.4,2.2-2.1,4-2.1c1.6,0,2.8,0.5,3.7,1.4s1.3,2.2,1.3,3.8L767.6,177.9L767.6,177.9z"
		/>
	<path d="M782.9,177.9h-2.3V176l0,0c-0.4,0.7-1,1.3-1.7,1.6c-0.7,0.4-1.5,0.6-2.4,0.6c-1.8,0-3.4-0.6-4.6-1.8
		c-1.2-1.2-1.9-2.7-1.9-4.6c0-1.9,0.6-3.4,1.9-4.6c1.2-1.2,2.8-1.9,4.6-1.9c0.9,0,1.6,0.2,2.4,0.5c0.7,0.3,1.3,0.9,1.8,1.5l0,0v-1.7
		h2.3L782.9,177.9L782.9,177.9z M780.6,171.8c0-1.2-0.4-2.3-1.2-3.1s-1.8-1.3-3-1.3s-2.2,0.4-3,1.3c-0.8,0.9-1.2,1.9-1.2,3.1
		c0,1.2,0.4,2.2,1.2,3c0.8,0.9,1.8,1.3,3,1.3s2.2-0.4,3-1.3C780.2,174.1,780.6,173,780.6,171.8z"/>
	<path d="M796.7,177.9h-2.3v-6.6c0-2.5-1-3.8-3-3.8c-1.1,0-1.9,0.4-2.4,1.1c-0.5,0.7-0.8,1.6-0.8,2.7v6.7h-2.3v-12.2h2.1v1.3l0,0
		c0.8-1.1,2-1.6,3.6-1.6c2,0,3.4,0.7,4.3,2.2c0.5,0.8,0.8,1.8,0.8,3.1L796.7,177.9L796.7,177.9z"/>
	<path d="M812.2,171.8c0,1.8-0.6,3.3-1.9,4.6c-1.3,1.3-2.8,1.9-4.7,1.9c-1.8,0-3.4-0.6-4.7-1.9c-1.3-1.3-1.9-2.8-1.9-4.6
		s0.7-3.3,2-4.5s2.9-1.8,4.6-1.8c1.8,0,3.4,0.6,4.7,1.9S812.2,170,812.2,171.8z M808.6,174.9c0.8-0.9,1.3-1.9,1.3-3.1
		s-0.4-2.2-1.3-3c-0.8-0.8-1.9-1.3-3-1.3c-1.2,0-2.2,0.4-3,1.3c-0.8,0.8-1.3,1.9-1.3,3.1c0,1.2,0.4,2.2,1.3,3.1
		c0.8,0.9,1.9,1.3,3,1.3C806.8,176.1,807.8,175.7,808.6,174.9z"/>
</g>
</svg>
